# xmcd
#
# Track frame offsets:
#	150
#	57987
#	84941
#	117406
#	152583
#	181492
#	204947
#	241286
#	272758
#	299058
#
# Disc length: 4267 seconds
#
# Revision: 0
# Processed by: cddbd v1.5.1PL0 Copyright (c) Steve Scherf et al.
# Submitted via: dBpowerAMP V4.0
#
DISCID=8c10a90a
DTITLE=Eric Clapton - Eric Clapton Blues Disk 2
DYEAR=1900
DGENRE=Blues
TTITLE0=Stormy Monday
TTITLE1=Worried Life Blues
TTITLE2=Early in the morning
TTITLE3=Have You Ever Loved A Woman
TTITLE4=Wonderful Tonight
TTITLE5=Kind Hearted Woman
TTITLE6=Double Trouble
TTITLE7=Driftin Blues
TTITLE8=Crossroads
TTITLE9=Further Up The Road
EXTD=
EXTT0=
EXTT1=
EXTT2=
EXTT3=
EXTT4=
EXTT5=
EXTT6=
EXTT7=
EXTT8=
EXTT9=
PLAYORDER=
